<?xml version="1.0" ?><svg id="Expanded" viewBox="0 0 64 64" xmlns="http://www.w3.org/2000/svg"><title/><path d="M58.18,29.39a12.32,12.32,0,0,0,.93-4.58,12,12,0,0,0-12-12h-.64a9,9,0,0,0-8.6-6.64,8.68,8.68,0,0,0-6.93,3.3,16.4,16.4,0,0,0-3.49-.34c-.52,0-1.05,0-1.56.07a16.24,16.24,0,0,0-10.35,5l-.12.12c-.23.25-.45.51-.67.78l-.37.45c-.13.17-.25.34-.37.52s-.38.55-.56.83l-.13.23a15.9,15.9,0,0,0-2.05,5.6s0,.07,0,.1c0,.23-.08.46-.11.69a9.23,9.23,0,0,0,1,18.39H54.24a6.94,6.94,0,0,0,3.94-12.52Zm-4,10.52h-42a7.23,7.23,0,0,1-.09-14.46l.91,0,.06-.91a14.41,14.41,0,0,1,28.78,1,14.72,14.72,0,0,1-.66,4.32,1,1,0,0,0,.66,1.25,1,1,0,0,0,.29.05,1,1,0,0,0,1-.71,16.73,16.73,0,0,0,.75-4.91,17.41,17.41,0,0,0-.19-2.41,8.89,8.89,0,0,1,3,.82,8,8,0,0,1,3.68,10.63,1,1,0,0,0,.47,1.33.94.94,0,0,0,.43.1,1,1,0,0,0,.9-.57,10,10,0,0,0-4.63-13.3,10.41,10.41,0,0,0-4.3-1A16.42,16.42,0,0,0,33,10.13a6.73,6.73,0,0,1,4.82-2,7,7,0,0,1,6.83,5.9l.17,1.08,1.06-.26a4.88,4.88,0,0,1,1.18-.09,10,10,0,0,1,10,10A10.68,10.68,0,0,1,56,29.36l-.39.86.83.44a4.93,4.93,0,0,1-2.25,9.25Z"/><path d="M55.32,44.49a4.08,4.08,0,0,0-2.92,1.25,2.1,2.1,0,0,1-1.59.75,2.13,2.13,0,0,1-1.59-.75,4,4,0,0,0-5.83,0,2,2,0,0,1-3.17,0,4,4,0,0,0-5.83,0,2.06,2.06,0,0,1-3.18,0,4,4,0,0,0-5.82,0,2.06,2.06,0,0,1-3.18,0,4,4,0,0,0-2.91-1.25,4.1,4.1,0,0,0-2.92,1.25,2,2,0,0,1-3.16,0,4.1,4.1,0,0,0-2.92-1.25,1,1,0,0,0,0,2,2.12,2.12,0,0,1,1.59.75,4,4,0,0,0,5.82,0,2,2,0,0,1,3.17,0,4,4,0,0,0,5.83,0,2.06,2.06,0,0,1,3.18,0,4,4,0,0,0,5.83,0,2,2,0,0,1,3.17,0,4,4,0,0,0,5.83,0,2.06,2.06,0,0,1,3.18,0,4,4,0,0,0,5.83,0,2.13,2.13,0,0,1,1.59-.75,1,1,0,0,0,0-2Z"/><path d="M55.32,49.16a4.12,4.12,0,0,0-2.92,1.25,2.1,2.1,0,0,1-1.59.75,2.13,2.13,0,0,1-1.59-.75,4,4,0,0,0-5.83,0,2,2,0,0,1-3.17,0,4,4,0,0,0-5.83,0,2.06,2.06,0,0,1-3.18,0,4,4,0,0,0-5.82,0,2.06,2.06,0,0,1-3.18,0,4,4,0,0,0-5.83,0,2.1,2.1,0,0,1-1.58.75,2.12,2.12,0,0,1-1.58-.74,4.06,4.06,0,0,0-2.92-1.26,1,1,0,1,0,0,2,2.12,2.12,0,0,1,1.59.75,4,4,0,0,0,5.82,0,2,2,0,0,1,3.17,0,4,4,0,0,0,5.83,0,2.06,2.06,0,0,1,3.18,0,4,4,0,0,0,5.83,0,2,2,0,0,1,3.17,0,4,4,0,0,0,5.83,0,2.06,2.06,0,0,1,3.18,0,4,4,0,0,0,5.83,0,2.13,2.13,0,0,1,1.59-.75,1,1,0,0,0,0-2Z"/><path d="M55.32,53.83a4.08,4.08,0,0,0-2.92,1.26,2.09,2.09,0,0,1-1.59.74,2.12,2.12,0,0,1-1.59-.74,4,4,0,0,0-5.83,0,2.07,2.07,0,0,1-3.17,0,4,4,0,0,0-5.83,0,2.08,2.08,0,0,1-3.18,0,4,4,0,0,0-5.82,0,2.08,2.08,0,0,1-3.18,0,4,4,0,0,0-5.83,0,2.06,2.06,0,0,1-3.16,0,4.06,4.06,0,0,0-2.92-1.26,1,1,0,1,0,0,2,2.12,2.12,0,0,1,1.59.75,4,4,0,0,0,5.82,0,2,2,0,0,1,3.17,0,4,4,0,0,0,5.83,0,2.06,2.06,0,0,1,3.18,0,4,4,0,0,0,5.83,0,2,2,0,0,1,3.17,0,4,4,0,0,0,5.83,0,2.06,2.06,0,0,1,3.18,0,4,4,0,0,0,5.83,0,2.13,2.13,0,0,1,1.59-.75,1,1,0,1,0,0-2Z"/></svg>