<?xml version="1.0" ?><svg id="Expanded" viewBox="0 0 64 64" xmlns="http://www.w3.org/2000/svg"><title/><path d="M60.79,31.69a1,1,0,0,0-1.1-.34,9.53,9.53,0,0,1-6.23-18,1,1,0,0,0,.64-1,1,1,0,0,0-.7-.92,13.69,13.69,0,0,0-8.74.14h0a14,14,0,0,0-9.44,12.18,15.55,15.55,0,0,0-5.78-2.25c-.25-.05-.49-.09-.74-.12l-.56-.06c-.47,0-.93-.07-1.41-.07a15.88,15.88,0,0,0-15.36,11.8.24.24,0,0,1,0,.08c-.1.4-.19.8-.26,1.22,0,.19-.06.38-.09.58s-.06.29-.07.43A8.92,8.92,0,0,0,12,53.18H52.83a6.63,6.63,0,0,0,6.55-6.68,6.78,6.78,0,0,0-5.83-6.76,11.33,11.33,0,0,0-.38-1.33l.67-.16a13.78,13.78,0,0,0,7-5.41A1,1,0,0,0,60.79,31.69ZM57.38,46.5a4.62,4.62,0,0,1-4.55,4.68H12a6.92,6.92,0,0,1-.13-13.83h.94l.05-.94c0-.3.06-.59.09-.89s0-.38.07-.57c0,0,0,0,0-.06a14,14,0,0,1,13.71-11.6c.42,0,.83,0,1.24.06l.53.06.61.1.73.14.13,0a13.82,13.82,0,0,1,5.52,2.79s.05.08.09.1a13.63,13.63,0,0,1,1.25,1.16l0,.05a12.17,12.17,0,0,1,1,1.23l.18.24a14.1,14.1,0,0,1,.87,1.39.54.54,0,0,1,0,.11,14.27,14.27,0,0,1,.66,1.43,14,14,0,0,1,1,5.11A11.81,11.81,0,0,1,40,41.42a1,1,0,0,0,.6,1.29,1,1,0,0,0,.34.06,1,1,0,0,0,.94-.66,13.6,13.6,0,0,0,.73-4.81A16,16,0,0,0,42,32.9h.57a8.11,8.11,0,0,1,1.21.09l.17,0a9.29,9.29,0,0,1,6.92,5.14,1,1,0,0,0,.17.25,8.93,8.93,0,0,1,.68,2.43l.12.86h.88A4.76,4.76,0,0,1,57.38,46.5ZM53.26,36.33l-.94.23A11.28,11.28,0,0,0,44.14,31l-.22,0a12.44,12.44,0,0,0-1.37-.09c-.44,0-.84,0-1.26,0-.1-.23-.22-.46-.33-.68a14.63,14.63,0,0,0-.75-1.35l0-.07a16.07,16.07,0,0,0-3-3.56,12.06,12.06,0,0,1,8.15-11.78,11.94,11.94,0,0,1,4.86-.64A11.52,11.52,0,0,0,45.93,26a11.68,11.68,0,0,0,11.54,7.78A11.93,11.93,0,0,1,53.26,36.33Z"/></svg>