<?xml version="1.0" ?><svg id="Expanded" viewBox="0 0 64 64" xmlns="http://www.w3.org/2000/svg"><title/><path d="M58.13,32.45a12.22,12.22,0,0,0,.92-4.57,12,12,0,0,0-12-12h-.63a9,9,0,0,0-8.58-6.63,8.65,8.65,0,0,0-6.91,3.3,16.53,16.53,0,0,0-3.49-.34c-.52,0-1.05,0-1.56.07a16.31,16.31,0,0,0-10.33,5l-.12.12c-.23.25-.45.51-.66.77l-.38.46-.36.51c-.2.28-.38.55-.56.84a2.53,2.53,0,0,0-.13.22,15.9,15.9,0,0,0-2.06,5.61v.07c0,.24-.08.46-.11.7a9.21,9.21,0,0,0,1,18.36h10a1,1,0,0,0,0-2h-10a7.22,7.22,0,0,1-.09-14.43l.91,0,.06-.9a14.38,14.38,0,0,1,28.72,1,14.65,14.65,0,0,1-.66,4.31,1,1,0,0,0,1,1.3,1,1,0,0,0,1-.71,16.61,16.61,0,0,0,.75-4.9,17.27,17.27,0,0,0-.19-2.4,8.84,8.84,0,0,1,3,.82,8,8,0,0,1,3.67,10.6,1,1,0,0,0,.47,1.33,1,1,0,0,0,.43.1,1,1,0,0,0,.9-.57A10,10,0,0,0,47.48,25.2a10.39,10.39,0,0,0-4.29-1A16.41,16.41,0,0,0,33,13.23a6.72,6.72,0,0,1,4.81-2,7,7,0,0,1,6.81,5.89l.17,1.08L45.89,18a4.84,4.84,0,0,1,1.17-.09,10,10,0,0,1,10,10A10.62,10.62,0,0,1,56,32.42l-.39.86.83.44A4.92,4.92,0,0,1,54.15,43H31.94a1,1,0,1,0,0,2H54.19a6.93,6.93,0,0,0,3.94-12.5Z"/><path d="M31,36.54a1.07,1.07,0,0,0-1-1.08H23l4.64-10.32a.93.93,0,0,0-.59-1.27,1,1,0,0,0-1.38.49l-5.3,11.79A1.08,1.08,0,0,0,21,37.53a1,1,0,0,0,.39.07v0h7.1L23.34,51a1,1,0,0,0,.58,1.27,1.08,1.08,0,0,0,1.38-.59l5.56-14.62A1.11,1.11,0,0,0,31,36.54Z"/></svg>