<?xml version="1.0" ?><svg id="Expanded" viewBox="0 0 64 64" xmlns="http://www.w3.org/2000/svg"><title/><path d="M40.23,12.28a1,1,0,0,0,1-1v-2a1,1,0,0,0-2,0v2A1,1,0,0,0,40.23,12.28Z"/><path d="M48.66,14.54a1,1,0,0,0,.45.11A1,1,0,0,0,50,14.1s.25-.49.93-1.75a1,1,0,0,0-1.75-1c-.73,1.33-1,1.81-1,1.81A1,1,0,0,0,48.66,14.54Z"/><path d="M55.5,21a1,1,0,0,0,.45-.1s.48-.24,1.81-1a1,1,0,0,0-1-1.75c-1.26.68-1.73.92-1.75.93A1,1,0,0,0,55.5,21Z"/><path d="M56.87,28.92a1,1,0,0,0,1,1h2a1,1,0,1,0,0-2h-2A1,1,0,0,0,56.87,28.92Z"/><path d="M22.82,20c1.22.67,1.58.9,1.58.9A.94.94,0,0,0,25,21a1,1,0,0,0,.56-1.83s-.43-.28-1.73-1a1,1,0,1,0-1,1.75Z"/><path d="M30.57,14.1a1,1,0,0,0,.9.55.87.87,0,0,0,.44-.11,1,1,0,0,0,.45-1.34s-.28-.56-1.11-1.86a1,1,0,0,0-1.69,1.07C30.33,13.63,30.57,14.09,30.57,14.1Z"/><path d="M58.18,43.13a12.33,12.33,0,0,0,.93-4.62,11.84,11.84,0,0,0-5-9.61A13.91,13.91,0,0,0,43.93,15.41h0A14.18,14.18,0,0,0,27.64,23h-.2c-.52,0-1,0-1.56.07a16.24,16.24,0,0,0-13.53,9.77c0,.11-.09.21-.13.32-.12.3-.23.6-.34.91s-.13.41-.19.61-.14.51-.2.76-.12.51-.17.76-.09.53-.13.79,0,.25-.06.38A9.14,9.14,0,0,0,3,46.44a9.24,9.24,0,0,0,9.17,9.29H54.24a7,7,0,0,0,3.94-12.6ZM29.81,23.08A12.19,12.19,0,0,1,43.4,17.34a11.94,11.94,0,0,1,8.71,10.37L52,27.65c-.3-.13-.6-.24-.9-.35l-.21-.07a11.78,11.78,0,0,0-1.2-.33h0c-.42-.09-.84-.16-1.27-.21h0c-.42,0-.85-.07-1.28-.07h-.64a9,9,0,0,0-8.6-6.76,8.26,8.26,0,0,0-1,.06c-.13,0-.26.05-.38.07l-.6.1-.47.14c-.16.05-.33.09-.48.15s-.32.13-.48.2l-.43.19a4,4,0,0,0-.45.25c-.14.08-.28.15-.42.24s-.27.19-.4.29-.28.19-.4.29-.24.22-.36.32-.26.23-.39.36l-.29.33c-.13.14-.26.28-.38.43l-.29,0ZM54.2,53.73h-42A7.33,7.33,0,0,1,5,46.44a7.12,7.12,0,0,1,7.05-7.17H13l.06-.94c0-.36.07-.71.12-1.07,0-.12,0-.24,0-.36s.1-.48.15-.73.08-.42.14-.62a9.56,9.56,0,0,1,.3-.95c0-.1.06-.21.1-.31a14.43,14.43,0,0,1,27.93,5.05,13.4,13.4,0,0,1-.66,4.18,1,1,0,0,0,.64,1.27,1.12,1.12,0,0,0,.31.05,1,1,0,0,0,1-.68,15.39,15.39,0,0,0,.76-4.82A16.4,16.4,0,0,0,33,24a6.77,6.77,0,0,1,4.83-2.08,7,7,0,0,1,6.83,6L44.85,29l1.07-.26a4.88,4.88,0,0,1,1.18-.09,10,10,0,0,1,1.33.1l.24,0a10.22,10.22,0,0,1,2.53.75l.3.14c.27.13.54.28.79.43a9.88,9.88,0,0,1,4.82,8.44A10.55,10.55,0,0,1,56,43l-.42.83.8.47A5.12,5.12,0,0,1,59,48.69,5,5,0,0,1,54.2,53.73Z"/></svg>