<?xml version="1.0" ?><svg id="Expanded" viewBox="0 0 64 64" xmlns="http://www.w3.org/2000/svg"><title/><path d="M58.18,34.53A12.28,12.28,0,0,0,59.11,30a12,12,0,0,0-12-12h-.63a9,9,0,0,0-8.6-6.64,8.68,8.68,0,0,0-6.93,3.3,16.4,16.4,0,0,0-3.49-.34c-.53,0-1.05,0-1.56.07a16.32,16.32,0,0,0-10.37,5l-.09.1c-.24.26-.47.52-.69.79s-.24.29-.35.44-.26.35-.39.53-.37.54-.54.82l-.15.24a15.91,15.91,0,0,0-2,5.59s0,.07,0,.11c0,.23-.08.45-.11.68a9.23,9.23,0,0,0,1,18.39H54.24a6.94,6.94,0,0,0,3.94-12.52Zm-4,10.52h-42a7.23,7.23,0,0,1-.09-14.45l.91,0,.06-.9a14.41,14.41,0,0,1,28.78,1A14.72,14.72,0,0,1,41.17,35a1,1,0,0,0,.66,1.25,1,1,0,0,0,.29.05,1,1,0,0,0,1-.71,16.68,16.68,0,0,0,.75-4.91,17.15,17.15,0,0,0-.19-2.4,8.8,8.8,0,0,1,3,.81A8,8,0,0,1,50.34,39.7,1,1,0,0,0,50.81,41a1.07,1.07,0,0,0,.43.09,1,1,0,0,0,.9-.57,10,10,0,0,0-4.63-13.3,10.41,10.41,0,0,0-4.3-1A16.45,16.45,0,0,0,33,15.27a6.77,6.77,0,0,1,4.83-2,7,7,0,0,1,6.83,5.9l.17,1.08L45.92,20a4.84,4.84,0,0,1,1.17-.09,10,10,0,0,1,10,10A10.68,10.68,0,0,1,56,34.5l-.39.86.83.45a4.93,4.93,0,0,1-2.25,9.24Z"/><path d="M24.9,49.81a1.44,1.44,0,1,0,1.44,1.44A1.44,1.44,0,0,0,24.9,49.81Z"/><path d="M39.1,49.81a1.44,1.44,0,1,0,1.44,1.44A1.43,1.43,0,0,0,39.1,49.81Z"/><path d="M32,49.81a1.44,1.44,0,1,0,1.44,1.44A1.43,1.43,0,0,0,32,49.81Z"/></svg>