<?xml version="1.0" ?><svg id="Expanded" viewBox="0 0 64 64" xmlns="http://www.w3.org/2000/svg"><title/><path d="M58.18,33.09a12.32,12.32,0,0,0,.93-4.58,12,12,0,0,0-12-12h-.63a9,9,0,0,0-8.6-6.64,8.68,8.68,0,0,0-6.93,3.3,16.4,16.4,0,0,0-3.49-.34c-.53,0-1.05,0-1.56.07a16.32,16.32,0,0,0-10.37,5l-.09.1c-.24.25-.47.52-.69.79l-.35.43c-.14.18-.26.36-.39.54s-.37.54-.54.81l-.15.25a15.84,15.84,0,0,0-2,5.59s0,.07,0,.1c0,.23-.08.46-.11.69a9.23,9.23,0,0,0,1,18.39H54.24a6.94,6.94,0,0,0,3.94-12.52Zm-4,10.52h-42a7.23,7.23,0,0,1-.09-14.46l.91,0,.06-.91a14.41,14.41,0,0,1,28.78,1,14.72,14.72,0,0,1-.66,4.32,1,1,0,0,0,.66,1.25,1,1,0,0,0,.29.05,1,1,0,0,0,1-.71,16.73,16.73,0,0,0,.75-4.91,17.41,17.41,0,0,0-.19-2.41,8.83,8.83,0,0,1,3,.82,8,8,0,0,1,3.68,10.63,1,1,0,0,0,.47,1.33.94.94,0,0,0,.43.1,1,1,0,0,0,.9-.57,10,10,0,0,0-4.63-13.3,10.41,10.41,0,0,0-4.3-1A16.43,16.43,0,0,0,33,13.83a6.77,6.77,0,0,1,4.83-2,7,7,0,0,1,6.83,5.9l.17,1.08,1.06-.26a4.84,4.84,0,0,1,1.17-.09,10,10,0,0,1,10,10A10.68,10.68,0,0,1,56,33.06l-.39.86.83.44a4.93,4.93,0,0,1-2.25,9.25Z"/><path d="M26.47,48.16a1,1,0,0,0-1.27.61l-1.42,4a1,1,0,0,0,.61,1.28,1.26,1.26,0,0,0,.33.05,1,1,0,0,0,.94-.66l1.42-4A1,1,0,0,0,26.47,48.16Z"/><path d="M39.64,48.17a1,1,0,0,0-1.29.58l-1.54,4a1,1,0,0,0,.57,1.29,1.13,1.13,0,0,0,.36.06,1,1,0,0,0,.94-.64l1.53-4A1,1,0,0,0,39.64,48.17Z"/></svg>